<svg xmlns="http://www.w3.org/2000/svg" version="1.1" xmlns:xlink="http://www.w3.org/1999/xlink" width="200" height="200"><svg xmlns="http://www.w3.org/2000/svg" version="1.1" xmlns:xlink="http://www.w3.org/1999/xlink" viewBox="0 0 200 200"><rect width="200" height="200" fill="url('#gradient')"></rect><defs><linearGradient id="SvgjsLinearGradient1001" gradientTransform="rotate(173 0.5 0.5)"><stop offset="0%" stop-color="#3481de"></stop><stop offset="100%" stop-color="#fb0202"></stop></linearGradient></defs><g><g fill="#080808" transform="matrix(1.8820553359683794,0,0,1.8820553359683794,4.98115425982494,113.82732907012517)" stroke="#3f8cd1" stroke-width="0.55"><path d="M4.50-14.22L4.50-2.64L10.47-2.64L10.47 0L1.07 0L1.07-14.22L4.50-14.22ZM18.02 0L17.92-1.14Q16.88 0.20 15.10 0.20L15.10 0.20Q13.36 0.20 12.47-0.82Q11.57-1.83 11.57-3.72L11.57-3.72L11.57-10.57L14.86-10.57L14.86-3.70Q14.86-2.34 16.18-2.34L16.18-2.34Q17.31-2.34 17.79-3.15L17.79-3.15L17.79-10.57L21.10-10.57L21.10 0L18.02 0ZM25.70-10.57L27.19-7.66L28.72-10.57L32.14-10.57L29.36-5.42L32.28 0L28.84 0L27.18-3.13L25.55 0L22.09 0L25.02-5.42L22.25-10.57L25.70-10.57ZM39.63-7.40L39.63-4.85L33.76-4.85L33.76-7.40L39.63-7.40ZM54.22-14.22L54.22 0L50.81 0L45.77-8.85L45.77 0L42.34 0L42.34-14.22L45.77-14.22L50.80-5.37L50.80-14.22L54.22-14.22ZM65.48 0L62.19 0Q62.01-0.32 61.88-0.95L61.88-0.95Q60.97 0.20 59.34 0.20L59.34 0.20Q57.84 0.20 56.80-0.71Q55.75-1.61 55.75-2.98L55.75-2.98Q55.75-4.70 57.02-5.58Q58.29-6.46 60.71-6.46L60.71-6.46L61.73-6.46L61.73-7.01Q61.73-8.47 60.47-8.47L60.47-8.47Q59.30-8.47 59.30-7.31L59.30-7.31L56.01-7.31Q56.01-8.85 57.31-9.80Q58.61-10.76 60.63-10.76Q62.66-10.76 63.83-9.78Q65-8.79 65.03-7.07L65.03-7.07L65.03-2.39Q65.05-0.94 65.48-0.17L65.48-0.17L65.48 0ZM60.13-2.15L60.13-2.15Q60.74-2.15 61.15-2.41Q61.55-2.68 61.73-3.01L61.73-3.01L61.73-4.70L60.77-4.70Q59.05-4.70 59.05-3.15L59.05-3.15Q59.05-2.71 59.36-2.43Q59.66-2.15 60.13-2.15ZM67.39-13.19L70.68-13.19L70.68-10.57L72.42-10.57L72.42-8.28L70.68-8.28L70.68-3.45Q70.68-2.85 70.90-2.62Q71.11-2.38 71.75-2.38L71.75-2.38Q72.24-2.38 72.57-2.44L72.57-2.44L72.57-0.09Q71.68 0.20 70.71 0.20L70.71 0.20Q69.01 0.20 68.20-0.61Q67.39-1.41 67.39-3.04L67.39-3.04L67.39-8.28L66.04-8.28L66.04-10.57L67.39-10.57L67.39-13.19ZM77.19-10.57L77.19 0L73.89 0L73.89-10.57L77.19-10.57ZM73.69-13.29L73.69-13.29Q73.69-13.99 74.20-14.44Q74.71-14.89 75.52-14.89Q76.33-14.89 76.84-14.44Q77.34-13.99 77.34-13.29Q77.34-12.59 76.84-12.14Q76.33-11.69 75.52-11.69Q74.71-11.69 74.20-12.14Q73.69-12.59 73.69-13.29ZM78.81-4.82L78.80-5.38Q78.80-6.96 79.41-8.20Q80.03-9.43 81.18-10.10Q82.33-10.76 83.89-10.76L83.89-10.76Q86.26-10.76 87.63-9.29Q88.99-7.82 88.99-5.29L88.99-5.29L88.99-5.18Q88.99-2.71 87.62-1.25Q86.25 0.20 83.91 0.20L83.91 0.20Q81.65 0.20 80.28-1.16Q78.92-2.51 78.81-4.82L78.81-4.82ZM82.10-5.77L82.09-5.18Q82.09-3.71 82.55-3.03Q83.01-2.34 83.91-2.34L83.91-2.34Q85.66-2.34 85.70-5.05L85.70-5.05L85.70-5.38Q85.70-8.22 83.89-8.22L83.89-8.22Q82.24-8.22 82.10-5.77L82.10-5.77ZM90.38-10.57L93.47-10.57L93.57-9.33Q94.67-10.76 96.59-10.76L96.59-10.76Q98.24-10.76 99.06-9.78Q99.87-8.79 99.90-6.81L99.90-6.81L99.90 0L96.60 0L96.60-6.67Q96.60-7.47 96.28-7.85Q95.96-8.22 95.11-8.22L95.11-8.22Q94.14-8.22 93.67-7.46L93.67-7.46L93.67 0L90.38 0L90.38-10.57Z"></path></g></g></svg><style>@media (prefers-color-scheme: light) { :root { filter: none; } }
@media (prefers-color-scheme: dark) { :root { filter: none; } }
</style></svg>